<svg xmlns="http://www.w3.org/2000/svg" xmlns:xlink="http://www.w3.org/1999/xlink" id="Layer_1" x="0" y="0" version="1.1" viewBox="0 0 100 100" style="enable-background:new 0 0 100 100" xml:space="preserve"><style type="text/css">.st0{filter:url(#Adobe_OpacityMaskFilter)}.st1{fill:#fff}.st2{mask:url(#b_1_);fill:#626363}.st3{filter:url(#Adobe_OpacityMaskFilter_1_)}.st4{mask:url(#d_1_);fill:#626363}.st5{filter:url(#Adobe_OpacityMaskFilter_2_)}.st6{mask:url(#f_1_);fill:#626363}.st7{filter:url(#Adobe_OpacityMaskFilter_3_)}.st8{mask:url(#h_1_);fill:#626363}.st9{filter:url(#Adobe_OpacityMaskFilter_4_)}.st10{mask:url(#j_1_);fill:#626363}.st11{filter:url(#Adobe_OpacityMaskFilter_5_)}.st12{mask:url(#l_1_);fill:#626363}.st13{filter:url(#Adobe_OpacityMaskFilter_6_)}.st14{mask:url(#n_1_);fill:#626363}.st15{filter:url(#Adobe_OpacityMaskFilter_7_)}.st16{mask:url(#p_1_);fill:#626363}</style><g id="XMLID_10_"><defs><filter id="Adobe_OpacityMaskFilter" width="49.3" height="30.8" x="13.2" y="17.1" filterUnits="userSpaceOnUse"><feColorMatrix type="matrix" values="1 0 0 0 0 0 1 0 0 0 0 0 1 0 0 0 0 0 1 0"/></filter></defs><mask id="b_1_" width="49.3" height="30.8" x="13.2" y="17.1" maskUnits="userSpaceOnUse"><g id="XMLID_39_" class="st0"><path id="a_1_" d="M8.5,96.8h83.1V3.2H8.5L8.5,96.8z" class="st1"/></g></mask><path id="XMLID_8_" d="M21.8,17.1L16,20.5c-3.8,2.2-3.8,5.5,0,7.7L50,48l12.5-7.3L21.8,17.1L21.8,17.1z" class="st2"/><defs><filter id="Adobe_OpacityMaskFilter_1_" width="53.1" height="28.4" x="37.5" y="3.2" filterUnits="userSpaceOnUse"><feColorMatrix type="matrix" values="1 0 0 0 0 0 1 0 0 0 0 0 1 0 0 0 0 0 1 0"/></filter></defs><mask id="d_1_" width="53.1" height="28.4" x="37.5" y="3.2" maskUnits="userSpaceOnUse"><g id="XMLID_36_" class="st3"><path id="c_1_" d="M8.5,96.8h83.1V3.2H8.5L8.5,96.8z" class="st1"/></g></mask><path id="XMLID_7_" d="M78.2,31.6l12.4-7.2L57.3,5C53,2.5,46.7,2.7,42.9,4.8L37.5,8L78.2,31.6z" class="st4"/><defs><filter id="Adobe_OpacityMaskFilter_2_" width="53.1" height="30.8" x="23.4" y="9" filterUnits="userSpaceOnUse"><feColorMatrix type="matrix" values="1 0 0 0 0 0 1 0 0 0 0 0 1 0 0 0 0 0 1 0"/></filter></defs><mask id="f_1_" width="53.1" height="30.8" x="23.4" y="9" maskUnits="userSpaceOnUse"><g id="XMLID_33_" class="st5"><path id="e_1_" d="M8.5,96.8h83.1V3.2H8.5L8.5,96.8z" class="st1"/></g></mask><path id="XMLID_6_" d="M64.1,39.7l12.4-7.2L35.8,9l-12.4,7.2L64.1,39.7z" class="st6"/><g id="XMLID_27_"><defs><filter id="Adobe_OpacityMaskFilter_3_" width="40.6" height="43.3" x="8.5" y="28.9" filterUnits="userSpaceOnUse"><feColorMatrix type="matrix" values="1 0 0 0 0 0 1 0 0 0 0 0 1 0 0 0 0 0 1 0"/></filter></defs><mask id="h_1_" width="40.6" height="43.3" x="8.5" y="28.9" maskUnits="userSpaceOnUse"><g id="XMLID_30_" class="st7"><path id="g_1_" d="M8.5,96.8h83.1V3.2H8.5L8.5,96.8z" class="st1"/></g></mask><path id="XMLID_5_" d="M49.1,72.3l0-22.7L15,29.8c-3.8-2.2-6.6,0-6.6,4.4l0,14.5L49.1,72.3L49.1,72.3z" class="st8"/></g><g id="XMLID_23_"><defs><filter id="Adobe_OpacityMaskFilter_4_" width="40.6" height="46.3" x="8.5" y="50.5" filterUnits="userSpaceOnUse"><feColorMatrix type="matrix" values="1 0 0 0 0 0 1 0 0 0 0 0 1 0 0 0 0 0 1 0"/></filter></defs><mask id="j_1_" width="40.6" height="46.3" x="8.5" y="50.5" maskUnits="userSpaceOnUse"><g id="XMLID_26_" class="st9"><path id="i_1_" d="M8.5,96.8h83.1V3.2H8.5L8.5,96.8z" class="st1"/></g></mask><path id="XMLID_4_" d="M8.5,50.5l0,14.7c0,5.6,3.1,9.8,6.9,12l33.7,19.6V74.2L8.5,50.5L8.5,50.5z" class="st10"/></g><g id="XMLID_19_"><defs><filter id="Adobe_OpacityMaskFilter_5_" width="40.6" height="38.3" x="50.9" y="26" filterUnits="userSpaceOnUse"><feColorMatrix type="matrix" values="1 0 0 0 0 0 1 0 0 0 0 0 1 0 0 0 0 0 1 0"/></filter></defs><mask id="l_1_" width="40.6" height="38.3" x="50.9" y="26" maskUnits="userSpaceOnUse"><g id="XMLID_22_" class="st11"><path id="k_1_" d="M8.5,96.8h83.1V3.2H8.5L8.5,96.8z" class="st1"/></g></mask><path id="XMLID_3_" d="M91.5,40.6V26l-33,19.2c-4.4,2.6-7.6,7.2-7.6,12.4v6.6L91.5,40.6L91.5,40.6z" class="st12"/></g><g id="XMLID_15_"><defs><filter id="Adobe_OpacityMaskFilter_6_" width="26.6" height="29.6" x="50.9" y="50.7" filterUnits="userSpaceOnUse"><feColorMatrix type="matrix" values="1 0 0 0 0 0 1 0 0 0 0 0 1 0 0 0 0 0 1 0"/></filter></defs><mask id="n_1_" width="26.6" height="29.6" x="50.9" y="50.7" maskUnits="userSpaceOnUse"><g id="XMLID_18_" class="st13"><path id="m_1_" d="M8.5,96.8h83.1V3.2H8.5L8.5,96.8z" class="st1"/></g></mask><path id="XMLID_2_" d="M77.5,64.8V50.7L50.9,66.1v14.2L77.5,64.8z" class="st14"/></g><g id="XMLID_11_"><defs><filter id="Adobe_OpacityMaskFilter_7_" width="12.5" height="21.9" x="50.9" y="75" filterUnits="userSpaceOnUse"><feColorMatrix type="matrix" values="1 0 0 0 0 0 1 0 0 0 0 0 1 0 0 0 0 0 1 0"/></filter></defs><mask id="p_1_" width="12.5" height="21.9" x="50.9" y="75" maskUnits="userSpaceOnUse"><g id="XMLID_14_" class="st15"><path id="o_1_" d="M8.5,96.8h83.1V3.2H8.5L8.5,96.8z" class="st1"/></g></mask><path id="XMLID_1_" d="M50.9,82.2v14.6l12.5-7.3V75L50.9,82.2z" class="st16"/></g></g></svg>